<svg version="1.2" xmlns="http://www.w3.org/2000/svg" viewBox="0 0 38 38" width="38" height="38"><defs><clipPath clipPathUnits="userSpaceOnUse" id="cp1"><path d="m-1222-1253h1920v5268h-1920z"/></clipPath></defs><style>.a{fill:#ff9c00;stroke:#ff9c00;stroke-width:.1}</style><g clip-path="url(#cp1)"><path fill-rule="evenodd" class="a" d="m16.2 11.3l9.3-9.4c0.5-0.6 1.1-0.9 1.9-0.9 0.7 0 1.4 0.2 1.9 0.7 0.6 0.5 0.9 1.2 0.9 1.9 0 0.7-0.2 1.4-0.7 1.9l-7.8 11c0.1 1.6-0.3 3.2-1.5 4.5q-0.6 0.7-1.4 1.3h10.4v2.8h-18.6q-0.3 0-0.6 0h-2.7l1.5-2.2c1.2-1.6 1.2-3 1.3-4.5 0-1.7 0.1-3.5 1.7-5.2 1-1.2 2.4-1.8 4-1.9q0.2 0 0.4 0zm19.8-1.3v16.4c0 2.3-1.8 4.1-4.1 4.1h-12v2.8h7.1v2.7h-17v-2.7h7.1v-2.8h-12c-2.3 0-4.1-1.8-4.1-4.1v-16.4c0-2.2 1.8-4.1 4.1-4.1h12.6l-2.7 2.7h-9.9c-0.8 0-1.4 0.7-1.4 1.4v16.4c0 0.8 0.6 1.4 1.4 1.4h26.8c0.8 0 1.4-0.6 1.4-1.4v-16.4c0-0.7-0.6-1.4-1.4-1.4h-1.2l1-1.4q0.5-0.6 0.8-1.3c2 0.3 3.5 2 3.5 4.1zm-16.9 2.3q0.4 0.2 0.8 0.6 0.3 0.3 0.6 0.6l6.9-9.7h0.1-0.1zm-1.1 2.6c-0.6-0.6-1.3-0.9-2.1-0.8-0.8 0-1.6 0.3-2.1 0.9-0.9 1-0.9 2-1 3.4 0 1.1 0 2.4-0.5 3.8 3.1-0.4 4.7-1.7 5.9-3 1.1-1.3 1.1-3.2-0.2-4.3z"/></g></svg>