<svg version="1.2" xmlns="http://www.w3.org/2000/svg" viewBox="0 0 41 41" width="41" height="41"><defs><clipPath clipPathUnits="userSpaceOnUse" id="cp1"><path d="m-818-1251h1920v5268h-1920z"/></clipPath></defs><style>.a{fill:#ff9c00;stroke:#ff9c00;stroke-width:.3}</style><g clip-path="url(#cp1)"><path fill-rule="evenodd" class="a" d="m39.6 2.1v4.6c0 0.6-0.5 1.1-1.2 1.1h-4.5c-0.6 0-1.1-0.5-1.1-1.1v-1.2h-4.7c4.1 2.6 6.6 6.9 6.9 11.6 1.3 0.4 2.2 1.7 2.2 3.2 0 1.9-1.5 3.4-3.3 3.4-1.9 0-3.4-1.5-3.4-3.4 0-1.5 0.9-2.7 2.2-3.2-0.4-5.3-4.2-9.9-9.4-11.2-0.5 1.1-1.7 1.9-3 1.9-1.3 0-2.5-0.8-3-1.9-5.2 1.3-9 5.9-9.4 11.2 1.3 0.5 2.2 1.7 2.2 3.2 0 1.9-1.5 3.4-3.4 3.4-1.8 0-3.4-1.5-3.4-3.4 0-1.5 1-2.8 2.3-3.2 0.3-4.6 2.8-9 6.9-11.6h-4.7v1.2c0 0.6-0.5 1.1-1.1 1.1h-4.6c-0.6 0-1.1-0.5-1.1-1.1v-4.6c0-0.6 0.5-1.1 1.1-1.1h4.6c0.6 0 1.1 0.5 1.1 1.1v1.2h9.3c0.5-1.4 1.7-2.3 3.2-2.3 1.5 0 2.7 0.9 3.2 2.3h9.3v-1.2c0-0.6 0.5-1.1 1.1-1.1h4.5c0.7 0 1.2 0.5 1.2 1.1zm-34.1 1.2h-2.2v2.2h2.2zm2.4 17c0-0.6-0.6-1.1-1.2-1.1-0.6 0-1.1 0.5-1.1 1.1 0 0.7 0.5 1.2 1.1 1.2 0.6 0 1.2-0.5 1.2-1.2zm13.5-15.8c0-0.7-0.5-1.2-1.1-1.2-0.6 0-1.1 0.5-1.1 1.2 0 0.6 0.5 1.1 1.1 1.1 0.6 0 1.1-0.5 1.1-1.1zm11.3 15.8c0 0.7 0.5 1.2 1.2 1.2 0.6 0 1.1-0.5 1.1-1.2 0-0.6-0.5-1.1-1.1-1.1-0.7 0-1.2 0.5-1.2 1.1zm4.6-17h-2.2v2.3h2.2z"/><path fill-rule="evenodd" class="a" d="m30.1 25.6c-2.2 2.3-3.7 5.2-4.1 8.4q0.3 0.2 0.6 0.4c1 1.1 1.6 2.5 1.6 4 0 0.7-0.5 1.2-1.1 1.2h-13.6c-0.6 0-1.1-0.5-1.1-1.2 0-1.5 0.6-2.9 1.6-4q0.3-0.2 0.5-0.4c-0.4-3.2-1.8-6.1-4.1-8.4-0.3-0.4-0.4-1-0.1-1.4l9-13.6q0 0 0 0 0.1 0 0.1 0c0.4-0.6 1.3-0.7 1.8-0.1q0 0.1 0 0.1 0 0 0 0 0 0 0 0l9.1 13.6c0.3 0.4 0.2 1-0.2 1.4zm-2.2-0.9l-6.5-9.7v6.6c1.3 0.5 2.3 1.7 2.3 3.2 0 1.9-1.5 3.4-3.4 3.4-1.9 0-3.4-1.5-3.4-3.4 0-1.5 0.9-2.7 2.3-3.2v-6.6l-6.5 9.7c2.1 2.3 3.4 5.1 4 8.2q0.6-0.2 1.3-0.2h4.5q0.8 0 1.4 0.2c0.6-3.1 1.9-5.9 4-8.2zm-2.2 12.6c-0.4-1.3-1.7-2.3-3.2-2.3h-4.5c-1.4 0-2.7 1-3.2 2.3zm-6.6-12.5c0 0.6 0.5 1.1 1.2 1.1 0.6 0 1.1-0.5 1.1-1.1 0-0.6-0.5-1.1-1.1-1.1-0.7 0-1.2 0.5-1.2 1.1z"/></g></svg>