<svg version="1.2" xmlns="http://www.w3.org/2000/svg" viewBox="0 0 35 35" width="35" height="35"><defs><clipPath clipPathUnits="userSpaceOnUse" id="cp1"><path d="m-415-1248h1920v5268h-1920z"/></clipPath></defs><style>.a{fill:#ff9c00;stroke:#ff9c00}</style><g clip-path="url(#cp1)"><path fill-rule="evenodd" class="a" d="m33.9 3.9v27.1c0 1.6-1.3 2.9-2.9 2.9h-27.1c-1.6 0-2.9-1.3-2.9-2.9v-27.1c0-1.6 1.3-2.9 2.9-2.9h27.1c1.6 0 2.9 1.3 2.9 2.9zm-31 4.8h5.9v-5.8h-4.9c-0.5 0-1 0.5-1 1zm29.1 1.9h-29.1v20.4c0 0.5 0.5 1 1 1h27.1c0.6 0 1-0.5 1-1zm0-6.7c0-0.6-0.4-1-1-1h-20.3v5.8h21.3z"/><path class="a" d="m30.1 5.8c0 0.6-0.5 1-1 1h-2c-0.5 0-1-0.4-1-1 0-0.5 0.5-0.9 1-0.9h2c0.5 0 1 0.4 1 0.9z"/><path class="a" d="m24.2 5.8c0 0.6-0.4 1-1 1h-1.9c-0.5 0-0.9-0.4-0.9-1 0-0.5 0.4-0.9 0.9-0.9h1.9c0.6 0 1 0.4 1 0.9z"/><path class="a" d="m18.4 5.8c0 0.6-0.4 1-0.9 1h-2c-0.5 0-0.9-0.4-0.9-1 0-0.5 0.4-0.9 0.9-0.9h2c0.5 0 0.9 0.4 0.9 0.9z"/><path fill-rule="evenodd" class="a" d="m28.1 27.2c0 1.6-1.3 2.9-2.9 2.9-1.6 0-2.9-1.3-2.9-2.9 0-1.3 0.8-2.4 1.9-2.8v-1.2c0-0.5-0.4-0.9-1-0.9h-4.8v2.1c1.1 0.4 2 1.5 2 2.8 0 1.6-1.3 2.9-2.9 2.9-1.6 0-2.9-1.3-2.9-2.9 0-1.3 0.8-2.4 1.9-2.8v-2.1h-4.8c-0.6 0-1 0.4-1 0.9v1.2c1.1 0.4 1.9 1.5 1.9 2.8 0 1.6-1.3 2.9-2.9 2.9-1.6 0-2.8-1.3-2.8-2.9 0-1.3 0.8-2.4 1.9-2.8v-1.2c0-1.6 1.3-2.8 2.9-2.8h4.8v-2.1c-1.1-0.4-1.9-1.5-1.9-2.8 0-1.6 1.3-2.9 2.9-2.9 1.6 0 2.9 1.3 2.9 2.9 0 1.3-0.9 2.4-2 2.8v2.1h4.8c1.6 0 2.9 1.2 2.9 2.8v1.2c1.2 0.4 2 1.5 2 2.8zm-17.4 0c0-0.6-0.4-1-1-1-0.5 0-0.9 0.4-0.9 1 0 0.5 0.4 0.9 0.9 0.9 0.6 0 1-0.4 1-0.9zm7.7 0c0-0.6-0.4-1-0.9-1-0.6 0-1 0.4-1 1 0 0.5 0.4 0.9 1 0.9 0.5 0 0.9-0.4 0.9-0.9zm0-11.7c0-0.5-0.4-0.9-0.9-0.9-0.6 0-1 0.4-1 0.9 0 0.6 0.4 1 1 1 0.5 0 0.9-0.4 0.9-1zm7.7 11.7c0-0.6-0.4-1-0.9-1-0.6 0-1 0.4-1 1 0 0.5 0.4 0.9 1 0.9 0.5 0 0.9-0.4 0.9-0.9z"/></g></svg>