<svg version="1.2" xmlns="http://www.w3.org/2000/svg" viewBox="0 0 38 38" width="38" height="38"><defs><clipPath clipPathUnits="userSpaceOnUse" id="cp1"><path d="m-883-5200h1920v5268h-1920z"/></clipPath><clipPath clipPathUnits="userSpaceOnUse" id="cp2"><path d="m21.77 18.86h-1.81v6.85h-2.69v-6.85h-1.27v-2.42h1.27v-1.57c0-1.12 0.51-2.87 2.71-2.87l1.98 0.01v2.35h-1.44c-0.23 0-0.57 0.12-0.57 0.66v1.42h2.05z"/></clipPath><clipPath clipPathUnits="userSpaceOnUse" id="cp3"><path d="m-1297-6883h1920v7273h-1920z"/></clipPath></defs><style>.a{fill:#3a5897}.b{fill:#fff}</style><g clip-path="url(#cp1)"><path class="a" d="m19 38c-10.5 0-19-8.5-19-19 0-10.5 8.5-19 19-19 10.5 0 19 8.5 19 19 0 10.5-8.5 19-19 19z"/><g clip-path="url(#cp2)"><g clip-path="url(#cp3)"><path class="b" d="m11 7h16v23.7h-16z"/></g></g></g></svg>