<svg version="1.2" xmlns="http://www.w3.org/2000/svg" viewBox="0 0 94 94" width="94" height="94"><defs><clipPath clipPathUnits="userSpaceOnUse" id="cp1"><path d="m-330-4096h1920v5268h-1920z"/></clipPath></defs><style>.a{fill:#ff9c00}</style><g clip-path="url(#cp1)"><path class="a" d="m2 4c-1.1 0-2-0.9-2-2 0-1.1 0.9-2 2-2 1.1 0 2 0.9 2 2 0 1.1-0.9 2-2 2z"/><path class="a" d="m62 4c-1.1 0-2-0.9-2-2 0-1.1 0.9-2 2-2 1.1 0 2 0.9 2 2 0 1.1-0.9 2-2 2z"/><path class="a" d="m52 4c-1.1 0-2-0.9-2-2 0-1.1 0.9-2 2-2 1.1 0 2 0.9 2 2 0 1.1-0.9 2-2 2z"/><path class="a" d="m42 4c-1.1 0-2-0.9-2-2 0-1.1 0.9-2 2-2 1.1 0 2 0.9 2 2 0 1.1-0.9 2-2 2z"/><path class="a" d="m32 4c-1.1 0-2-0.9-2-2 0-1.1 0.9-2 2-2 1.1 0 2 0.9 2 2 0 1.1-0.9 2-2 2z"/><path class="a" d="m22 4c-1.1 0-2-0.9-2-2 0-1.1 0.9-2 2-2 1.1 0 2 0.9 2 2 0 1.1-0.9 2-2 2z"/><path class="a" d="m12 4c-1.1 0-2-0.9-2-2 0-1.1 0.9-2 2-2 1.1 0 2 0.9 2 2 0 1.1-0.9 2-2 2z"/><path class="a" d="m72 4c-1.1 0-2-0.9-2-2 0-1.1 0.9-2 2-2 1.1 0 2 0.9 2 2 0 1.1-0.9 2-2 2z"/><path class="a" d="m82 4c-1.1 0-2-0.9-2-2 0-1.1 0.9-2 2-2 1.1 0 2 0.9 2 2 0 1.1-0.9 2-2 2z"/><path class="a" d="m92 4c-1.1 0-2-0.9-2-2 0-1.1 0.9-2 2-2 1.1 0 2 0.9 2 2 0 1.1-0.9 2-2 2z"/><path class="a" d="m2 14c-1.1 0-2-0.9-2-2 0-1.1 0.9-2 2-2 1.1 0 2 0.9 2 2 0 1.1-0.9 2-2 2z"/><path class="a" d="m62 14c-1.1 0-2-0.9-2-2 0-1.1 0.9-2 2-2 1.1 0 2 0.9 2 2 0 1.1-0.9 2-2 2z"/><path class="a" d="m52 14c-1.1 0-2-0.9-2-2 0-1.1 0.9-2 2-2 1.1 0 2 0.9 2 2 0 1.1-0.9 2-2 2z"/><path class="a" d="m42 14c-1.1 0-2-0.9-2-2 0-1.1 0.9-2 2-2 1.1 0 2 0.9 2 2 0 1.1-0.9 2-2 2z"/><path class="a" d="m32 14c-1.1 0-2-0.9-2-2 0-1.1 0.9-2 2-2 1.1 0 2 0.9 2 2 0 1.1-0.9 2-2 2z"/><path class="a" d="m22 14c-1.1 0-2-0.9-2-2 0-1.1 0.9-2 2-2 1.1 0 2 0.9 2 2 0 1.1-0.9 2-2 2z"/><path class="a" d="m12 14c-1.1 0-2-0.9-2-2 0-1.1 0.9-2 2-2 1.1 0 2 0.9 2 2 0 1.1-0.9 2-2 2z"/><path class="a" d="m72 14c-1.1 0-2-0.9-2-2 0-1.1 0.9-2 2-2 1.1 0 2 0.9 2 2 0 1.1-0.9 2-2 2z"/><path class="a" d="m82 14c-1.1 0-2-0.9-2-2 0-1.1 0.9-2 2-2 1.1 0 2 0.9 2 2 0 1.1-0.9 2-2 2z"/><path class="a" d="m92 14c-1.1 0-2-0.9-2-2 0-1.1 0.9-2 2-2 1.1 0 2 0.9 2 2 0 1.1-0.9 2-2 2z"/><path class="a" d="m2 24c-1.1 0-2-0.9-2-2 0-1.1 0.9-2 2-2 1.1 0 2 0.9 2 2 0 1.1-0.9 2-2 2z"/><path class="a" d="m62 24c-1.1 0-2-0.9-2-2 0-1.1 0.9-2 2-2 1.1 0 2 0.9 2 2 0 1.1-0.9 2-2 2z"/><path class="a" d="m52 24c-1.1 0-2-0.9-2-2 0-1.1 0.9-2 2-2 1.1 0 2 0.9 2 2 0 1.1-0.9 2-2 2z"/><path class="a" d="m42 24c-1.1 0-2-0.9-2-2 0-1.1 0.9-2 2-2 1.1 0 2 0.9 2 2 0 1.1-0.9 2-2 2z"/><path class="a" d="m32 24c-1.1 0-2-0.9-2-2 0-1.1 0.9-2 2-2 1.1 0 2 0.9 2 2 0 1.1-0.9 2-2 2z"/><path class="a" d="m22 24c-1.1 0-2-0.9-2-2 0-1.1 0.9-2 2-2 1.1 0 2 0.9 2 2 0 1.1-0.9 2-2 2z"/><path class="a" d="m12 24c-1.1 0-2-0.9-2-2 0-1.1 0.9-2 2-2 1.1 0 2 0.9 2 2 0 1.1-0.9 2-2 2z"/><path class="a" d="m72 24c-1.1 0-2-0.9-2-2 0-1.1 0.9-2 2-2 1.1 0 2 0.9 2 2 0 1.1-0.9 2-2 2z"/><path class="a" d="m82 24c-1.1 0-2-0.9-2-2 0-1.1 0.9-2 2-2 1.1 0 2 0.9 2 2 0 1.1-0.9 2-2 2z"/><path class="a" d="m92 24c-1.1 0-2-0.9-2-2 0-1.1 0.9-2 2-2 1.1 0 2 0.9 2 2 0 1.1-0.9 2-2 2z"/><path class="a" d="m2 34c-1.1 0-2-0.9-2-2 0-1.1 0.9-2 2-2 1.1 0 2 0.9 2 2 0 1.1-0.9 2-2 2z"/><path class="a" d="m62 34c-1.1 0-2-0.9-2-2 0-1.1 0.9-2 2-2 1.1 0 2 0.9 2 2 0 1.1-0.9 2-2 2z"/><path class="a" d="m52 34c-1.1 0-2-0.9-2-2 0-1.1 0.9-2 2-2 1.1 0 2 0.9 2 2 0 1.1-0.9 2-2 2z"/><path class="a" d="m42 34c-1.1 0-2-0.9-2-2 0-1.1 0.9-2 2-2 1.1 0 2 0.9 2 2 0 1.1-0.9 2-2 2z"/><path class="a" d="m32 34c-1.1 0-2-0.9-2-2 0-1.1 0.9-2 2-2 1.1 0 2 0.9 2 2 0 1.1-0.9 2-2 2z"/><path class="a" d="m22 34c-1.1 0-2-0.9-2-2 0-1.1 0.9-2 2-2 1.1 0 2 0.9 2 2 0 1.1-0.9 2-2 2z"/><path class="a" d="m12 34c-1.1 0-2-0.9-2-2 0-1.1 0.9-2 2-2 1.1 0 2 0.9 2 2 0 1.1-0.9 2-2 2z"/><path class="a" d="m72 34c-1.1 0-2-0.9-2-2 0-1.1 0.9-2 2-2 1.1 0 2 0.9 2 2 0 1.1-0.9 2-2 2z"/><path class="a" d="m82 34c-1.1 0-2-0.9-2-2 0-1.1 0.9-2 2-2 1.1 0 2 0.9 2 2 0 1.1-0.9 2-2 2z"/><path class="a" d="m92 34c-1.1 0-2-0.9-2-2 0-1.1 0.9-2 2-2 1.1 0 2 0.9 2 2 0 1.1-0.9 2-2 2z"/><path class="a" d="m2 44c-1.1 0-2-0.9-2-2 0-1.1 0.9-2 2-2 1.1 0 2 0.9 2 2 0 1.1-0.9 2-2 2z"/><path class="a" d="m62 44c-1.1 0-2-0.9-2-2 0-1.1 0.9-2 2-2 1.1 0 2 0.9 2 2 0 1.1-0.9 2-2 2z"/><path class="a" d="m52 44c-1.1 0-2-0.9-2-2 0-1.1 0.9-2 2-2 1.1 0 2 0.9 2 2 0 1.1-0.9 2-2 2z"/><path class="a" d="m42 44c-1.1 0-2-0.9-2-2 0-1.1 0.9-2 2-2 1.1 0 2 0.9 2 2 0 1.1-0.9 2-2 2z"/><path class="a" d="m32 44c-1.1 0-2-0.9-2-2 0-1.1 0.9-2 2-2 1.1 0 2 0.9 2 2 0 1.1-0.9 2-2 2z"/><path class="a" d="m22 44c-1.1 0-2-0.9-2-2 0-1.1 0.9-2 2-2 1.1 0 2 0.9 2 2 0 1.1-0.9 2-2 2z"/><path class="a" d="m12 44c-1.1 0-2-0.9-2-2 0-1.1 0.9-2 2-2 1.1 0 2 0.9 2 2 0 1.1-0.9 2-2 2z"/><path class="a" d="m72 44c-1.1 0-2-0.9-2-2 0-1.1 0.9-2 2-2 1.1 0 2 0.9 2 2 0 1.1-0.9 2-2 2z"/><path class="a" d="m82 44c-1.1 0-2-0.9-2-2 0-1.1 0.9-2 2-2 1.1 0 2 0.9 2 2 0 1.1-0.9 2-2 2z"/><path class="a" d="m92 44c-1.1 0-2-0.9-2-2 0-1.1 0.9-2 2-2 1.1 0 2 0.9 2 2 0 1.1-0.9 2-2 2z"/><path class="a" d="m2 54c-1.1 0-2-0.9-2-2 0-1.1 0.9-2 2-2 1.1 0 2 0.9 2 2 0 1.1-0.9 2-2 2z"/><path class="a" d="m62 54c-1.1 0-2-0.9-2-2 0-1.1 0.9-2 2-2 1.1 0 2 0.9 2 2 0 1.1-0.9 2-2 2z"/><path class="a" d="m52 54c-1.1 0-2-0.9-2-2 0-1.1 0.9-2 2-2 1.1 0 2 0.9 2 2 0 1.1-0.9 2-2 2z"/><path class="a" d="m42 54c-1.1 0-2-0.9-2-2 0-1.1 0.9-2 2-2 1.1 0 2 0.9 2 2 0 1.1-0.9 2-2 2z"/><path class="a" d="m32 54c-1.1 0-2-0.9-2-2 0-1.1 0.9-2 2-2 1.1 0 2 0.9 2 2 0 1.1-0.9 2-2 2z"/><path class="a" d="m22 54c-1.1 0-2-0.9-2-2 0-1.1 0.9-2 2-2 1.1 0 2 0.9 2 2 0 1.1-0.9 2-2 2z"/><path class="a" d="m12 54c-1.1 0-2-0.9-2-2 0-1.1 0.9-2 2-2 1.1 0 2 0.9 2 2 0 1.1-0.9 2-2 2z"/><path class="a" d="m72 54c-1.1 0-2-0.9-2-2 0-1.1 0.9-2 2-2 1.1 0 2 0.9 2 2 0 1.1-0.9 2-2 2z"/><path class="a" d="m82 54c-1.1 0-2-0.9-2-2 0-1.1 0.9-2 2-2 1.1 0 2 0.9 2 2 0 1.1-0.9 2-2 2z"/><path class="a" d="m92 54c-1.1 0-2-0.9-2-2 0-1.1 0.9-2 2-2 1.1 0 2 0.9 2 2 0 1.1-0.9 2-2 2z"/><path class="a" d="m2 64c-1.1 0-2-0.9-2-2 0-1.1 0.9-2 2-2 1.1 0 2 0.9 2 2 0 1.1-0.9 2-2 2z"/><path class="a" d="m62 64c-1.1 0-2-0.9-2-2 0-1.1 0.9-2 2-2 1.1 0 2 0.9 2 2 0 1.1-0.9 2-2 2z"/><path class="a" d="m52 64c-1.1 0-2-0.9-2-2 0-1.1 0.9-2 2-2 1.1 0 2 0.9 2 2 0 1.1-0.9 2-2 2z"/><path class="a" d="m42 64c-1.1 0-2-0.9-2-2 0-1.1 0.9-2 2-2 1.1 0 2 0.9 2 2 0 1.1-0.9 2-2 2z"/><path class="a" d="m32 64c-1.1 0-2-0.9-2-2 0-1.1 0.9-2 2-2 1.1 0 2 0.9 2 2 0 1.1-0.9 2-2 2z"/><path class="a" d="m22 64c-1.1 0-2-0.9-2-2 0-1.1 0.9-2 2-2 1.1 0 2 0.9 2 2 0 1.1-0.9 2-2 2z"/><path class="a" d="m12 64c-1.1 0-2-0.9-2-2 0-1.1 0.9-2 2-2 1.1 0 2 0.9 2 2 0 1.1-0.9 2-2 2z"/><path class="a" d="m72 64c-1.1 0-2-0.9-2-2 0-1.1 0.9-2 2-2 1.1 0 2 0.9 2 2 0 1.1-0.9 2-2 2z"/><path class="a" d="m82 64c-1.1 0-2-0.9-2-2 0-1.1 0.9-2 2-2 1.1 0 2 0.9 2 2 0 1.1-0.9 2-2 2z"/><path class="a" d="m92 64c-1.1 0-2-0.9-2-2 0-1.1 0.9-2 2-2 1.1 0 2 0.9 2 2 0 1.1-0.9 2-2 2z"/><path class="a" d="m2 74c-1.1 0-2-0.9-2-2 0-1.1 0.9-2 2-2 1.1 0 2 0.9 2 2 0 1.1-0.9 2-2 2z"/><path class="a" d="m62 74c-1.1 0-2-0.9-2-2 0-1.1 0.9-2 2-2 1.1 0 2 0.9 2 2 0 1.1-0.9 2-2 2z"/><path class="a" d="m52 74c-1.1 0-2-0.9-2-2 0-1.1 0.9-2 2-2 1.1 0 2 0.9 2 2 0 1.1-0.9 2-2 2z"/><path class="a" d="m42 74c-1.1 0-2-0.9-2-2 0-1.1 0.9-2 2-2 1.1 0 2 0.9 2 2 0 1.1-0.9 2-2 2z"/><path class="a" d="m32 74c-1.1 0-2-0.9-2-2 0-1.1 0.9-2 2-2 1.1 0 2 0.9 2 2 0 1.1-0.9 2-2 2z"/><path class="a" d="m22 74c-1.1 0-2-0.9-2-2 0-1.1 0.9-2 2-2 1.1 0 2 0.9 2 2 0 1.1-0.9 2-2 2z"/><path class="a" d="m12 74c-1.1 0-2-0.9-2-2 0-1.1 0.9-2 2-2 1.1 0 2 0.9 2 2 0 1.1-0.9 2-2 2z"/><path class="a" d="m72 74c-1.1 0-2-0.9-2-2 0-1.1 0.9-2 2-2 1.1 0 2 0.9 2 2 0 1.1-0.9 2-2 2z"/><path class="a" d="m82 74c-1.1 0-2-0.9-2-2 0-1.1 0.9-2 2-2 1.1 0 2 0.9 2 2 0 1.1-0.9 2-2 2z"/><path class="a" d="m92 74c-1.1 0-2-0.9-2-2 0-1.1 0.9-2 2-2 1.1 0 2 0.9 2 2 0 1.1-0.9 2-2 2z"/><path class="a" d="m2 84c-1.1 0-2-0.9-2-2 0-1.1 0.9-2 2-2 1.1 0 2 0.9 2 2 0 1.1-0.9 2-2 2z"/><path class="a" d="m62 84c-1.1 0-2-0.9-2-2 0-1.1 0.9-2 2-2 1.1 0 2 0.9 2 2 0 1.1-0.9 2-2 2z"/><path class="a" d="m52 84c-1.1 0-2-0.9-2-2 0-1.1 0.9-2 2-2 1.1 0 2 0.9 2 2 0 1.1-0.9 2-2 2z"/><path class="a" d="m42 84c-1.1 0-2-0.9-2-2 0-1.1 0.9-2 2-2 1.1 0 2 0.9 2 2 0 1.1-0.9 2-2 2z"/><path class="a" d="m32 84c-1.1 0-2-0.9-2-2 0-1.1 0.9-2 2-2 1.1 0 2 0.9 2 2 0 1.1-0.9 2-2 2z"/><path class="a" d="m22 84c-1.1 0-2-0.9-2-2 0-1.1 0.9-2 2-2 1.1 0 2 0.9 2 2 0 1.1-0.9 2-2 2z"/><path class="a" d="m12 84c-1.1 0-2-0.9-2-2 0-1.1 0.9-2 2-2 1.1 0 2 0.9 2 2 0 1.1-0.9 2-2 2z"/><path class="a" d="m72 84c-1.1 0-2-0.9-2-2 0-1.1 0.9-2 2-2 1.1 0 2 0.9 2 2 0 1.1-0.9 2-2 2z"/><path class="a" d="m82 84c-1.1 0-2-0.9-2-2 0-1.1 0.9-2 2-2 1.1 0 2 0.9 2 2 0 1.1-0.9 2-2 2z"/><path class="a" d="m92 84c-1.1 0-2-0.9-2-2 0-1.1 0.9-2 2-2 1.1 0 2 0.9 2 2 0 1.1-0.9 2-2 2z"/><path class="a" d="m2 94c-1.1 0-2-0.9-2-2 0-1.1 0.9-2 2-2 1.1 0 2 0.9 2 2 0 1.1-0.9 2-2 2z"/><path class="a" d="m62 94c-1.1 0-2-0.9-2-2 0-1.1 0.9-2 2-2 1.1 0 2 0.9 2 2 0 1.1-0.9 2-2 2z"/><path class="a" d="m52 94c-1.1 0-2-0.9-2-2 0-1.1 0.9-2 2-2 1.1 0 2 0.9 2 2 0 1.1-0.9 2-2 2z"/><path class="a" d="m42 94c-1.1 0-2-0.9-2-2 0-1.1 0.9-2 2-2 1.1 0 2 0.9 2 2 0 1.1-0.9 2-2 2z"/><path class="a" d="m32 94c-1.1 0-2-0.9-2-2 0-1.1 0.9-2 2-2 1.1 0 2 0.9 2 2 0 1.1-0.9 2-2 2z"/><path class="a" d="m22 94c-1.1 0-2-0.9-2-2 0-1.1 0.9-2 2-2 1.1 0 2 0.9 2 2 0 1.1-0.9 2-2 2z"/><path class="a" d="m12 94c-1.1 0-2-0.9-2-2 0-1.1 0.9-2 2-2 1.1 0 2 0.9 2 2 0 1.1-0.9 2-2 2z"/><path class="a" d="m72 94c-1.1 0-2-0.9-2-2 0-1.1 0.9-2 2-2 1.1 0 2 0.9 2 2 0 1.1-0.9 2-2 2z"/><path class="a" d="m82 94c-1.1 0-2-0.9-2-2 0-1.1 0.9-2 2-2 1.1 0 2 0.9 2 2 0 1.1-0.9 2-2 2z"/><path class="a" d="m92 94c-1.1 0-2-0.9-2-2 0-1.1 0.9-2 2-2 1.1 0 2 0.9 2 2 0 1.1-0.9 2-2 2z"/></g></svg>