<svg version="1.2" xmlns="http://www.w3.org/2000/svg" viewBox="0 0 17 22" width="17" height="22"><defs><clipPath clipPathUnits="userSpaceOnUse" id="cp1"><path d="m-998-4421h1920v5268h-1920z"/></clipPath><clipPath clipPathUnits="userSpaceOnUse" id="cp2"><path d="m6.99 5.28l4.74 4.88q0.27 0.29 0.27 0.67 0 0.38-0.27 0.68l-4.74 4.88c-0.36 0.37-0.95 0.37-1.31 0l-0.41-0.42c-0.36-0.37-0.36-0.98 0-1.35l3.03-3.12q0.27-0.29 0.27-0.67 0-0.38-0.27-0.67l-3.03-3.12c-0.36-0.37-0.36-0.97 0-1.34l0.41-0.42c0.36-0.37 0.95-0.37 1.31 0z"/></clipPath><clipPath clipPathUnits="userSpaceOnUse" id="cp3"><path d="m5 4.42h7v13h-7z"/></clipPath></defs><style>.a{fill:#ff9c00}</style><g clip-path="url(#cp1)"><g clip-path="url(#cp2)"><g clip-path="url(#cp3)"><path class="a" d="m17 21.7h-17v-21.7h17z"/></g></g></g></svg>