<svg version="1.2" xmlns="http://www.w3.org/2000/svg" viewBox="0 0 17 23" width="17" height="23"><defs><clipPath clipPathUnits="userSpaceOnUse" id="cp1"><path d="m-913-4420h1920v5268h-1920z"/></clipPath><clipPath clipPathUnits="userSpaceOnUse" id="cp2"><path d="m11.32 6.28l0.41 0.42c0.36 0.37 0.36 0.97 0 1.34l-3.03 3.12q-0.27 0.29-0.27 0.67 0 0.38 0.27 0.67l3.03 3.12c0.36 0.37 0.36 0.98 0 1.35l-0.41 0.42c-0.36 0.37-0.95 0.37-1.31 0l-4.74-4.88q-0.27-0.3-0.27-0.68 0-0.38 0.27-0.67l4.74-4.88c0.36-0.37 0.95-0.37 1.31 0z"/></clipPath><clipPath clipPathUnits="userSpaceOnUse" id="cp3"><path d="m12 18.42h-7v-13h7z"/></clipPath></defs><style>.a{fill:#ff9c00}</style><g clip-path="url(#cp1)"><g clip-path="url(#cp2)"><g clip-path="url(#cp3)"><path class="a" d="m0 1h17v21.7h-17z"/></g></g></g></svg>