<svg version="1.2" xmlns="http://www.w3.org/2000/svg" viewBox="0 0 38 38" width="38" height="38"><defs><clipPath clipPathUnits="userSpaceOnUse" id="cp1"><path d="m-941-5200h1920v5268h-1920z"/></clipPath><clipPath clipPathUnits="userSpaceOnUse" id="cp2"><path d="m24.67 15.81q0.01 0.18 0.01 0.36c0 3.76-2.69 8.1-7.59 8.1-1.51 0-2.91-0.47-4.09-1.28q0.31 0.04 0.64 0.04c1.25 0 2.39-0.46 3.31-1.22-1.17-0.02-2.15-0.84-2.49-1.97q0.24 0.05 0.5 0.05 0.36 0 0.7-0.1c-1.22-0.26-2.14-1.41-2.14-2.79v-0.04q0.55 0.33 1.21 0.36c-0.72-0.51-1.19-1.38-1.19-2.37q0.01-0.79 0.36-1.43c1.32 1.72 3.28 2.85 5.5 2.97q-0.07-0.31-0.07-0.65c0-1.57 1.2-2.84 2.67-2.84 0.77 0 1.46 0.35 1.95 0.9q0.91-0.2 1.69-0.69c-0.2 0.66-0.62 1.22-1.17 1.57q0.81-0.11 1.53-0.45-0.54 0.87-1.33 1.48z"/></clipPath><clipPath clipPathUnits="userSpaceOnUse" id="cp3"><path d="m-1296-6926h1920v7273h-1920z"/></clipPath></defs><style>.a{fill:#1da0f1}.b{fill:#fff}</style><g clip-path="url(#cp1)"><path class="a" d="m19 38c-10.5 0-19-8.5-19-19 0-10.5 8.5-19 19-19 10.5 0 19 8.5 19 19 0 10.5-8.5 19-19 19z"/><g clip-path="url(#cp2)"><g clip-path="url(#cp3)"><path class="b" d="m8 8h23v21.3h-23z"/></g></g></g></svg>