<svg version="1.2" xmlns="http://www.w3.org/2000/svg" viewBox="0 0 38 38" width="38" height="38"><defs><clipPath clipPathUnits="userSpaceOnUse" id="cp1"><path d="m-999-5200h1920v5268h-1920z"/></clipPath><clipPath clipPathUnits="userSpaceOnUse" id="cp2"><path d="m25.99 19.62q0 0.48-0.03 0.95-0.02 0.37-0.06 0.74-0.04 0.65-0.26 1.27-0.36 0.9-1.29 1.1-0.29 0.05-0.59 0.07-0.48 0.03-0.96 0.06-0.14 0-0.28 0.01-0.44 0.01-0.87 0.02-1.06 0.03-2.12 0.04-0.84 0-1.69-0.01-0.48-0.01-0.96-0.02-0.52 0-1.04-0.02-0.33-0.01-0.66-0.02-0.4-0.02-0.8-0.05c-0.33-0.03-0.66-0.06-0.98-0.17q-0.75-0.25-1.04-1-0.15-0.4-0.22-0.83-0.03-0.25-0.05-0.5-0.03-0.34-0.06-0.68-0.01-0.24-0.02-0.48-0.01-0.95-0.01-1.91 0-0.33 0.02-0.67 0.02-0.41 0.06-0.82 0.04-0.41 0.11-0.81 0.08-0.5 0.33-0.93 0.38-0.58 1.05-0.74 0.3-0.06 0.61-0.08 0.46-0.04 0.93-0.06 0.14-0.01 0.28-0.02 0.44-0.01 0.89-0.02 1.05-0.03 2.11-0.04 1.04 0 2.08 0.01 0.53 0 1.06 0.02 0.54 0.02 1.09 0.04 0.36 0.01 0.72 0.03 0.39 0.02 0.78 0.06 0.74 0.07 1.23 0.63 0.22 0.27 0.32 0.6 0.11 0.36 0.18 0.73 0.04 0.24 0.06 0.5 0.02 0.25 0.04 0.5 0.02 0.2 0.02 0.41 0.01 0.2 0.01 0.41h0.02q0 0.84-0.01 1.68zm-4.66-0.82q-1.89-1-3.78-1.99v3.96q1.89-0.99 3.78-1.97z"/></clipPath><clipPath clipPathUnits="userSpaceOnUse" id="cp3"><path d="m-1297-6969h1920v7273h-1920z"/></clipPath></defs><style>.a{fill:#c4302b}.b{fill:#fff}</style><g clip-path="url(#cp1)"><path class="a" d="m19 38c-10.5 0-19-8.5-19-19 0-10.5 8.5-19 19-19 10.5 0 19 8.5 19 19 0 10.5-8.5 19-19 19z"/><g clip-path="url(#cp2)"><g clip-path="url(#cp3)"><path class="b" d="m7 9h24v19.9h-24z"/></g></g></g></svg>